<mxfile host="app.diagrams.net" modified="2020-11-17T20:55:11.951Z" agent="5.0 (Windows NT 10.0; Win64; x64) AppleWebKit/537.36 (KHTML, like Gecko) Chrome/88.0.4307.0 Safari/537.36 Edg/88.0.692.0" etag="6YVOhsFKrt7dIOjuabiQ" version="13.9.9" type="github">
  <diagram id="GbQ9wabFYI_MaC2_cHQQ" name="Page-1">
    <mxGraphModel dx="1038" dy="580" grid="1" gridSize="10" guides="1" tooltips="1" connect="1" arrows="1" fold="1" page="1" pageScale="1" pageWidth="850" pageHeight="1100" math="0" shadow="0">
      <root>
        <mxCell id="0" />
        <mxCell id="1" parent="0" />
        <mxCell id="NEqc8nKRHtcBdQz_AVIA-1" value="START" style="rounded=1;whiteSpace=wrap;html=1;" parent="1" vertex="1">
          <mxGeometry x="50" width="120" height="60" as="geometry" />
        </mxCell>
        <mxCell id="NEqc8nKRHtcBdQz_AVIA-2" value="DHT11&lt;br&gt;Temperature" style="shape=parallelogram;perimeter=parallelogramPerimeter;whiteSpace=wrap;html=1;fixedSize=1;" parent="1" vertex="1">
          <mxGeometry x="50" y="110" width="120" height="60" as="geometry" />
        </mxCell>
        <mxCell id="NEqc8nKRHtcBdQz_AVIA-3" value="" style="endArrow=classic;html=1;exitX=0.5;exitY=1;exitDx=0;exitDy=0;entryX=0.5;entryY=0;entryDx=0;entryDy=0;" parent="1" source="NEqc8nKRHtcBdQz_AVIA-1" target="NEqc8nKRHtcBdQz_AVIA-2" edge="1">
          <mxGeometry width="50" height="50" relative="1" as="geometry">
            <mxPoint x="400" y="150" as="sourcePoint" />
            <mxPoint x="380" y="110" as="targetPoint" />
          </mxGeometry>
        </mxCell>
        <mxCell id="NEqc8nKRHtcBdQz_AVIA-4" value="temp &amp;gt;= 20&lt;br&gt;AND&lt;br&gt;temp &amp;lt;= 15" style="rhombus;whiteSpace=wrap;html=1;" parent="1" vertex="1">
          <mxGeometry x="45" y="210" width="130" height="90" as="geometry" />
        </mxCell>
        <mxCell id="NEqc8nKRHtcBdQz_AVIA-6" value="" style="endArrow=classic;html=1;exitX=0.5;exitY=1;exitDx=0;exitDy=0;entryX=0.5;entryY=0;entryDx=0;entryDy=0;" parent="1" source="NEqc8nKRHtcBdQz_AVIA-2" target="NEqc8nKRHtcBdQz_AVIA-4" edge="1">
          <mxGeometry width="50" height="50" relative="1" as="geometry">
            <mxPoint x="400" y="310" as="sourcePoint" />
            <mxPoint x="450" y="260" as="targetPoint" />
          </mxGeometry>
        </mxCell>
        <mxCell id="NEqc8nKRHtcBdQz_AVIA-10" value="" style="endArrow=classic;html=1;exitX=0.5;exitY=1;exitDx=0;exitDy=0;entryX=0.5;entryY=0;entryDx=0;entryDy=0;" parent="1" source="NEqc8nKRHtcBdQz_AVIA-4" target="NEqc8nKRHtcBdQz_AVIA-11" edge="1">
          <mxGeometry width="50" height="50" relative="1" as="geometry">
            <mxPoint x="400" y="300" as="sourcePoint" />
            <mxPoint x="380" y="350" as="targetPoint" />
          </mxGeometry>
        </mxCell>
        <mxCell id="NEqc8nKRHtcBdQz_AVIA-11" value="Green LED On&lt;br&gt;LCD - All Ok" style="rounded=0;whiteSpace=wrap;html=1;" parent="1" vertex="1">
          <mxGeometry x="50" y="350" width="120" height="60" as="geometry" />
        </mxCell>
        <mxCell id="NEqc8nKRHtcBdQz_AVIA-12" value="&lt;font style=&quot;font-size: 14px&quot;&gt;True&lt;/font&gt;" style="text;html=1;strokeColor=none;fillColor=none;align=center;verticalAlign=middle;whiteSpace=wrap;rounded=0;" parent="1" vertex="1">
          <mxGeometry x="160" y="220" width="55" height="30" as="geometry" />
        </mxCell>
        <mxCell id="NEqc8nKRHtcBdQz_AVIA-13" value="&lt;font style=&quot;font-size: 14px&quot;&gt;False&lt;/font&gt;" style="text;html=1;strokeColor=none;fillColor=none;align=center;verticalAlign=middle;whiteSpace=wrap;rounded=0;" parent="1" vertex="1">
          <mxGeometry x="60" y="310" width="40" height="20" as="geometry" />
        </mxCell>
        <mxCell id="NEqc8nKRHtcBdQz_AVIA-15" value="Yellow LED&lt;br&gt;LCD - Warning" style="rounded=0;whiteSpace=wrap;html=1;" parent="1" vertex="1">
          <mxGeometry x="230" y="225" width="120" height="60" as="geometry" />
        </mxCell>
        <mxCell id="NEqc8nKRHtcBdQz_AVIA-20" value="&lt;span&gt;temp &amp;gt;= 25&lt;/span&gt;&lt;br&gt;&lt;span&gt;OR&lt;/span&gt;&lt;br&gt;&lt;span&gt;temp &amp;lt;= 20&lt;/span&gt;" style="rhombus;whiteSpace=wrap;html=1;" parent="1" vertex="1">
          <mxGeometry x="400" y="210" width="135" height="90" as="geometry" />
        </mxCell>
        <mxCell id="NEqc8nKRHtcBdQz_AVIA-23" value="Red LED&lt;br&gt;LCD - Critical" style="rounded=0;whiteSpace=wrap;html=1;" parent="1" vertex="1">
          <mxGeometry x="590" y="225" width="120" height="60" as="geometry" />
        </mxCell>
        <mxCell id="NEqc8nKRHtcBdQz_AVIA-25" value="&lt;font style=&quot;font-size: 14px&quot;&gt;Loop&lt;/font&gt;" style="rounded=1;whiteSpace=wrap;html=1;" parent="1" vertex="1">
          <mxGeometry x="50" y="470" width="120" height="60" as="geometry" />
        </mxCell>
        <mxCell id="NEqc8nKRHtcBdQz_AVIA-27" value="" style="endArrow=classic;html=1;entryX=0.5;entryY=0;entryDx=0;entryDy=0;exitX=0.5;exitY=1;exitDx=0;exitDy=0;" parent="1" source="NEqc8nKRHtcBdQz_AVIA-11" target="NEqc8nKRHtcBdQz_AVIA-25" edge="1">
          <mxGeometry width="50" height="50" relative="1" as="geometry">
            <mxPoint x="370" y="430" as="sourcePoint" />
            <mxPoint x="400" y="430" as="targetPoint" />
          </mxGeometry>
        </mxCell>
        <mxCell id="NEqc8nKRHtcBdQz_AVIA-28" value="" style="endArrow=classic;html=1;exitX=0;exitY=0.5;exitDx=0;exitDy=0;entryX=0;entryY=0.5;entryDx=0;entryDy=0;" parent="1" source="NEqc8nKRHtcBdQz_AVIA-25" target="NEqc8nKRHtcBdQz_AVIA-1" edge="1">
          <mxGeometry width="50" height="50" relative="1" as="geometry">
            <mxPoint x="260" y="540" as="sourcePoint" />
            <mxPoint x="200" y="30" as="targetPoint" />
            <Array as="points">
              <mxPoint x="10" y="500" />
              <mxPoint x="10" y="30" />
            </Array>
          </mxGeometry>
        </mxCell>
        <mxCell id="NEqc8nKRHtcBdQz_AVIA-34" value="" style="endArrow=classic;html=1;entryX=0;entryY=0.5;entryDx=0;entryDy=0;" parent="1" source="NEqc8nKRHtcBdQz_AVIA-15" edge="1" target="NEqc8nKRHtcBdQz_AVIA-20">
          <mxGeometry width="50" height="50" relative="1" as="geometry">
            <mxPoint x="500" y="305" as="sourcePoint" />
            <mxPoint x="390" y="255" as="targetPoint" />
          </mxGeometry>
        </mxCell>
        <mxCell id="NEqc8nKRHtcBdQz_AVIA-35" value="" style="endArrow=classic;html=1;exitX=1;exitY=0.5;exitDx=0;exitDy=0;entryX=0;entryY=0.5;entryDx=0;entryDy=0;" parent="1" source="NEqc8nKRHtcBdQz_AVIA-20" target="NEqc8nKRHtcBdQz_AVIA-23" edge="1">
          <mxGeometry width="50" height="50" relative="1" as="geometry">
            <mxPoint x="670" y="300" as="sourcePoint" />
            <mxPoint x="720" y="250" as="targetPoint" />
          </mxGeometry>
        </mxCell>
        <mxCell id="NEqc8nKRHtcBdQz_AVIA-39" value="&lt;font style=&quot;font-size: 14px&quot;&gt;False&lt;/font&gt;" style="text;html=1;strokeColor=none;fillColor=none;align=center;verticalAlign=middle;whiteSpace=wrap;rounded=0;" parent="1" vertex="1">
          <mxGeometry x="420" y="300" width="40" height="20" as="geometry" />
        </mxCell>
        <mxCell id="NEqc8nKRHtcBdQz_AVIA-40" value="" style="endArrow=classic;html=1;exitX=0.5;exitY=1;exitDx=0;exitDy=0;entryX=1;entryY=0.5;entryDx=0;entryDy=0;" parent="1" source="NEqc8nKRHtcBdQz_AVIA-20" target="NEqc8nKRHtcBdQz_AVIA-25" edge="1">
          <mxGeometry width="50" height="50" relative="1" as="geometry">
            <mxPoint x="770" y="330" as="sourcePoint" />
            <mxPoint x="780" y="510" as="targetPoint" />
            <Array as="points">
              <mxPoint x="468" y="500" />
            </Array>
          </mxGeometry>
        </mxCell>
        <mxCell id="NEqc8nKRHtcBdQz_AVIA-41" value="&lt;font style=&quot;font-size: 14px&quot;&gt;True&lt;/font&gt;" style="text;html=1;strokeColor=none;fillColor=none;align=center;verticalAlign=middle;whiteSpace=wrap;rounded=0;" parent="1" vertex="1">
          <mxGeometry x="535" y="230" width="40" height="20" as="geometry" />
        </mxCell>
        <mxCell id="PIveHvH1oYUkCGYTxlvE-4" value="" style="endArrow=classic;html=1;exitX=1;exitY=0.5;exitDx=0;exitDy=0;" edge="1" parent="1" source="NEqc8nKRHtcBdQz_AVIA-4">
          <mxGeometry width="50" height="50" relative="1" as="geometry">
            <mxPoint x="400" y="320" as="sourcePoint" />
            <mxPoint x="230" y="255" as="targetPoint" />
          </mxGeometry>
        </mxCell>
        <mxCell id="PIveHvH1oYUkCGYTxlvE-6" value="" style="endArrow=classic;html=1;exitX=0.5;exitY=1;exitDx=0;exitDy=0;" edge="1" parent="1" source="NEqc8nKRHtcBdQz_AVIA-23">
          <mxGeometry width="50" height="50" relative="1" as="geometry">
            <mxPoint x="460" y="490" as="sourcePoint" />
            <mxPoint x="460" y="500" as="targetPoint" />
            <Array as="points">
              <mxPoint x="650" y="500" />
            </Array>
          </mxGeometry>
        </mxCell>
      </root>
    </mxGraphModel>
  </diagram>
</mxfile>
